<?xml version="1.0" encoding="utf-8"?>
<!-- Generator: Adobe Illustrator 24.0.3, SVG Export Plug-In . SVG Version: 6.00 Build 0)  -->
<svg version="1.1" id="Layer_1" xmlns="http://www.w3.org/2000/svg" xmlns:xlink="http://www.w3.org/1999/xlink" x="0px" y="0px"
	 width="500px" height="250px" viewBox="0 0 500 250" style="enable-background:new 0 0 500 250;" xml:space="preserve">
<style type="text/css">
	.st0{fill:#231F20;}
	.st1{fill:#84C449;}
</style>
<g>
	<g>
		<path class="st0" d="M146.5,119.91c-6.37-5.08-15.65-4.01-20.72,2.37c-10.32,12.98-25.73,20.41-42.26,20.41
			c-29.77,0-53.99-24.22-53.99-53.98c0-29.78,24.22-54,53.99-54c16.53,0,31.91,7.44,42.26,20.42c5.07,6.38,14.35,7.44,20.72,2.35
			c6.38-5.06,7.44-14.34,2.38-20.73C132.91,16.69,109.09,5.19,83.52,5.19c-46.05,0-83.51,37.46-83.51,83.52
			c0,46.05,37.46,83.51,83.51,83.51c25.57,0,49.39-11.5,65.36-31.58C153.94,134.28,152.88,124.99,146.5,119.91z"/>
		<path class="st0" d="M241.36,5.12c-40.99,0-75.15,29.69-82.17,68.68h-48.63c-8.15,0-14.76,6.6-14.76,14.77
			c0,8.14,6.61,14.75,14.76,14.75h48.59c3.52,19.86,14.12,37.8,30.27,50.66c6.39,5.08,15.66,4.02,20.73-2.37
			c5.09-6.38,4.03-15.66-2.35-20.73c-12.99-10.33-20.42-25.73-20.42-42.26c0-29.77,24.22-53.99,53.98-53.99
			c29.78,0,54,24.21,54,53.99c0,16.53-7.45,31.92-20.42,42.26c-6.39,5.07-7.44,14.35-2.37,20.73c5.08,6.38,14.36,7.45,20.74,2.37
			c20.06-15.97,31.56-39.78,31.56-65.35C324.87,42.58,287.41,5.12,241.36,5.12z"/>
	</g>
	<g>
		<path class="st0" d="M241.36,93.28c8.16,0,14.76,6.62,14.76,14.77v49.42c0,8.14-6.6,14.75-14.76,14.75
			c-8.15,0-14.75-6.61-14.75-14.75v-49.42C226.61,99.89,233.21,93.28,241.36,93.28z"/>
	</g>
	<g>
		<path class="st1" d="M468.45,23.35c-6.39-5.08-15.67-4.02-20.74,2.36c-5.08,6.38-4.03,15.66,2.36,20.74
			c12.99,10.32,20.42,25.72,20.42,42.25c0,29.76-24.22,53.98-53.99,53.98c-29.78,0-53.98-24.22-53.98-53.98
			c0-16.53,7.43-31.93,20.4-42.25c6.38-5.08,7.43-14.36,2.38-20.74c-5.08-6.38-14.37-7.44-20.75-2.36
			c-20.05,15.96-31.55,39.78-31.55,65.35c0,46.05,37.46,83.51,83.51,83.51c46.05,0,83.51-37.46,83.51-83.51
			C500.01,63.13,488.51,39.31,468.45,23.35z"/>
		<path class="st1" d="M416.5,80.04c8.15,0,14.76-6.61,14.76-14.77V15.86c0-8.16-6.6-14.75-14.76-14.75
			c-8.16,0-14.75,6.59-14.75,14.75v49.41C401.75,73.42,408.34,80.04,416.5,80.04z"/>
	</g>
	<path class="st0" d="M33.19,224.31c-3.42,5.1-8.59,7.21-14.55,7.21c-10.26,0-17.03-7.35-17.03-17.75
		c0-10.04,6.99-17.61,16.81-17.61c10.33,0,15.78,7.93,15.78,15.72v3.05H5.98c0,3.63,2.55,12.66,12.74,12.66
		c4.44,0,9.09-2.33,11.27-5.97L33.19,224.31z M29.84,211.01c0-5.97-5.16-10.92-11.64-10.92c-9.52,0-12.22,9.17-12.22,10.92H29.84z"
		/>
	<path class="st0" d="M83.63,224.31c-3.42,5.1-8.58,7.21-14.55,7.21c-10.26,0-17.03-7.35-17.03-17.75
		c0-10.04,6.98-17.61,16.81-17.61c10.33,0,15.78,7.93,15.78,15.72v3.05H56.42c0,3.63,2.55,12.66,12.73,12.66
		c4.44,0,9.1-2.33,11.27-5.97L83.63,224.31z M80.28,211.01c0-5.97-5.16-10.92-11.64-10.92c-9.53,0-12.23,9.17-12.23,10.92H80.28z"/>
	<path class="st0" d="M121.1,225.7c-3.28,3.93-7.57,5.82-12.37,5.82c-10.34,0-17.69-7.42-17.69-17.68
		c0-10.26,7.34-17.68,17.69-17.68c4.87,0,9.23,2.12,12.5,5.83l-3.49,2.62c-2.55-2.77-5.52-4.52-9.01-4.52
		c-8.23,0-13.32,6.19-13.32,13.75c0,7.57,5.09,13.75,13.32,13.75c3.63,0,6.77-1.89,9.01-4.66L121.1,225.7z"/>
	<path class="st0" d="M144.37,200.96h-9.61v21.9c0,2.99,1.76,4.73,4.66,4.73c1.68,0,3.42-0.51,4.94-1.16l0.36,3.92
		c-1.6,0.59-4,1.17-5.67,1.17c-6.26,0-8.66-3.86-8.66-8.66v-21.9h-7.28v-3.93h7.28v-9.67h4.36v9.67h9.61V200.96z"/>
	<path class="st0" d="M152.16,206.49c0-2.47-0.37-7.71-0.37-9.46h4.36c0.08,2.47,0.15,5.24,0.3,5.89c2.18-3.92,5.67-6.76,10.69-6.76
		c0.88,0,1.68,0.15,2.55,0.37l-0.51,4.29c-0.66-0.21-1.24-0.29-1.68-0.29c-7.55,0-10.98,5.24-10.98,11.8v18.33h-4.36V206.49z"/>
	<path class="st0" d="M190.87,196.15c10.33,0,17.68,7.43,17.68,17.68c0,10.26-7.35,17.68-17.68,17.68
		c-10.33,0-17.69-7.42-17.69-17.68C173.17,203.58,180.53,196.15,190.87,196.15z M190.87,227.59c8.22,0,13.31-6.18,13.31-13.75
		c0-7.56-5.09-13.75-13.31-13.75c-8.22,0-13.31,6.19-13.31,13.75C177.55,221.41,182.64,227.59,190.87,227.59z"/>
	<path class="st0" d="M216.99,206.49c0-2.47-0.36-7.71-0.36-9.46h4.36c0.07,2.47,0.14,5.24,0.29,5.89h0.22
		c1.75-3.71,6.04-6.76,11.5-6.76c10.47,0,12.8,7.14,12.8,14.48v20.01h-4.36v-19.79c0-5.47-1.53-10.77-8.44-10.77
		c-6.48,0-11.64,4.52-11.64,13.75v16.81h-4.36V206.49z"/>
	<path class="st0" d="M256.45,180.44c1.81,0,3.27,1.45,3.27,3.27c0,1.81-1.46,3.27-3.27,3.27c-1.83,0-3.27-1.46-3.27-3.27
		C253.17,181.9,254.62,180.44,256.45,180.44z M254.26,197.03h4.36v33.62h-4.36V197.03z"/>
	<path class="st0" d="M295.24,225.7c-3.27,3.93-7.56,5.82-12.36,5.82c-10.34,0-17.68-7.42-17.68-17.68
		c0-10.26,7.34-17.68,17.68-17.68c4.87,0,9.23,2.12,12.51,5.83l-3.5,2.62c-2.55-2.77-5.52-4.52-9.01-4.52
		c-8.22,0-13.31,6.19-13.31,13.75c0,7.57,5.09,13.75,13.31,13.75c3.63,0,6.76-1.89,9.01-4.66L295.24,225.7z"/>
	<path class="st0" d="M331.39,175.64h6.55v25.83h0.14c1.69-3.63,6.05-6.18,11.35-6.18c6.7,0,12.52,4,12.52,13.17v22.19h-6.55v-20.37
		c0-6.49-3.7-8.89-7.85-8.89c-5.46,0-9.6,3.49-9.6,11.5v17.75h-6.55V175.64z"/>
	<path class="st0" d="M375.62,178.98c2.62,0,4.8,2.18,4.8,4.81c0,2.61-2.18,4.79-4.8,4.79c-2.62,0-4.81-2.18-4.81-4.79
		C370.81,181.16,373,178.98,375.62,178.98z M372.35,196.15h6.55v34.49h-6.55V196.15z"/>
	<path class="st0" d="M389.3,196.15h6.54v5.32h0.16c1.67-3.63,6.04-6.18,11.35-6.18c6.69,0,12.51,4,12.51,13.17v22.19h-6.55v-20.37
		c0-6.49-3.71-8.89-7.86-8.89c-5.46,0-9.61,3.49-9.61,11.5v17.75h-6.54V196.15z"/>
	<path class="st0" d="M464.3,230.35c0,10.41-7.56,17.76-18.84,17.76c-6.55,0-12-1.67-16.89-6.19l4.44-5.52
		c3.42,3.64,7.29,5.6,12.3,5.6c9.75,0,12.44-6.11,12.44-11.93v-5.1h-0.22c-2.47,4.16-7.19,6.12-11.93,6.12
		c-10.11,0-17.6-7.64-17.53-17.67c0-10.2,6.83-18.12,17.53-18.12c4.66,0,9.46,2.11,12.01,5.82h0.14v-4.95h6.54V230.35z
		 M435.06,213.41c0,6.98,4.38,11.55,11.36,11.55c6.98,0,11.34-4.57,11.34-11.55c0-6.99-4.36-12.02-11.34-12.02
		C439.43,201.39,435.06,206.42,435.06,213.41z"/>
	<path class="st0" d="M492.54,204.82c-1.53-1.9-3.78-3.43-7.06-3.43c-3.05,0-5.75,1.39-5.75,3.86c0,4.15,5.9,4.73,8.81,5.38
		c5.69,1.39,10.04,3.57,10.04,10.04c0,7.78-7.12,10.84-13.97,10.84c-5.67,0-9.89-1.45-13.31-6.11l4.95-4.07
		c2.11,2.11,4.58,4.07,8.36,4.07c3.36,0,6.99-1.38,6.99-4.36c0-3.93-5.46-4.66-8.3-5.31c-5.6-1.38-10.54-3.2-10.54-9.82
		c0-7.21,6.62-10.62,13.1-10.62c4.58,0,9.31,1.6,11.78,5.67L492.54,204.82z"/>
	<path class="st0" d="M314.87,217.47v-15.64h9.39v-5.67h-9.39v-15.28l-6.55,6.55v8.72h-7.56v5.67h7.56v17.98
		c0,5.52,0.15,11.71,10.27,11.71c1.3,0,4.36-0.29,5.89-1.17v-5.96c-1.31,0.79-3.13,1.02-4.66,1.02
		C314.87,225.41,314.87,221.33,314.87,217.47z"/>
	<polygon class="st0" points="40.62,187.45 40.62,230.64 44.99,230.64 44.99,183.09 	"/>
</g>
</svg>
